<svg width="102" height="124" viewBox="0 0 102 124" fill="none" xmlns="http://www.w3.org/2000/svg">
<g clip-path="url(#clip0_1_159)">
<path d="M0 2.54293C5.13339 -0.81648 10.2668 0.244384 14.8692 1.83568C21.2417 4.13423 27.4371 7.14002 33.1016 10.6762C58.7685 27.6501 74.1687 51.8732 80.5412 81.7543C82.1343 89.3572 82.6654 97.3137 83.7274 105.977C90.808 101.911 94.5253 93.9543 101.606 89.3572C102.491 92.8934 100.721 95.192 99.3046 97.1369C93.4632 105.093 87.4447 113.05 81.2493 120.83C78.24 124.543 75.9388 124.896 72.7526 121.714C66.0261 115.172 61.9548 107.215 60.7157 98.0209C60.7157 97.6673 61.2467 97.1369 61.9547 96.2528C69.5663 98.1977 67.7962 107.922 74.3457 111.459C77.1779 99.2586 75.0538 87.5891 71.8675 76.2732C68.5043 64.4268 64.0789 53.1109 56.9984 43.0327C50.0949 33.1313 41.4212 25.1747 31.8624 17.7487C22.4807 10.1458 11.8599 5.37191 0 2.54293Z" fill="#2E2E2E"/>
</g>
<defs>
<clipPath id="clip0_1_159">
<rect width="101.843" height="123.548" fill="white" transform="translate(0 0.330078)"/>
</clipPath>
</defs>
</svg>
