<svg width="248" height="60" viewBox="0 0 248 60" fill="none" xmlns="http://www.w3.org/2000/svg">
<g clip-path="url(#clip0_1_163)">
<path d="M0.739118 59.2696C11.6764 37.0329 70.0675 7.44239 111.7 2.18964C156.684 -3.58839 182.616 1.31418 235.538 26.0021C234.833 22.5003 233.951 19.6988 233.598 17.0725C233.069 14.0959 232.539 10.9442 232.716 7.96768C232.716 7.09222 234.303 5.51639 235.362 5.3413C236.42 5.16621 238.184 6.39185 238.537 7.26731C241.713 15.6717 244.535 24.0761 247.534 32.6556C248.416 35.4571 247.358 37.5582 244.359 38.4337C232.892 41.2351 221.426 44.2117 209.783 46.8381C207.137 47.3633 203.961 46.663 200.433 46.663C203.256 39.134 209.606 40.0095 214.193 38.0835C218.956 35.9824 224.072 34.7567 230.246 32.6556C215.604 22.8505 200.786 16.7223 185.086 12.8702C127.577 -1.48729 74.6541 10.419 25.7891 42.2857C19.4384 46.4879 13.6169 51.3904 7.44266 55.7677C5.50216 56.6432 3.73805 57.5187 0.739118 59.2696Z" fill="#2E2E2E"/>
</g>
<defs>
<clipPath id="clip0_1_163">
<rect width="247.096" height="59.2696" fill="white" transform="translate(0.739258)"/>
</clipPath>
</defs>
</svg>
