<svg width="184" height="74" viewBox="0 0 184 74" fill="none" xmlns="http://www.w3.org/2000/svg">
<g clip-path="url(#clip0_1_157)">
<path d="M2.64832 22.1899C4.41387 24.1406 6.53252 25.7366 8.12152 27.8646C21.7162 46.8392 41.1373 56.2379 62.6769 61.3805C70.0922 63.1539 78.5668 62.9765 86.1587 61.3805C107.875 57.1245 127.649 48.0805 144.775 33.8939C149.718 29.8152 153.956 24.6726 157.487 18.8206C155.545 19.5299 153.426 20.2392 151.484 21.1259C145.834 23.6086 140.184 26.2686 134.358 28.3966C131.886 29.2832 128.885 29.2832 126.06 29.1059C125.001 29.1059 123.412 27.5099 123.235 26.4459C123.059 25.3819 124.118 23.4312 125.001 23.2539C140.008 18.6432 153.073 9.77658 166.668 2.15125C171.435 -0.508744 174.436 0.200588 176.555 4.98858C181.675 16.8699 183.97 29.4606 183.617 42.4059C183.617 42.7606 182.911 43.2925 181.851 44.3565C171.435 40.4552 174.613 29.1059 169.493 20.0619C168.257 22.1899 167.374 23.9632 166.315 25.3819C144.069 52.8685 114.584 67.4099 80.3324 72.7299C75.2123 73.6165 69.5626 73.2619 64.2659 72.3752C44.8449 69.0059 27.5425 60.8485 13.2416 47.1939C8.65118 42.7606 5.29664 36.9086 1.9421 31.4112C0.529663 29.2832 0.529664 26.2686 0 23.7859C0.882774 23.2539 1.76555 22.7219 2.64832 22.1899Z" fill="#2E2E2E"/>
</g>
<defs>
<clipPath id="clip0_1_157">
<rect width="183.652" height="72.6261" fill="white" transform="translate(0 0.617188)"/>
</clipPath>
</defs>
</svg>
