<svg width="179" height="131" viewBox="0 0 179 131" fill="none" xmlns="http://www.w3.org/2000/svg">
<path d="M92.2256 62.2634C107.303 52.7354 122.203 44.3223 134.392 37.8352L142.907 33.2992L150.306 29.5235C154.842 27.1415 158.719 25.3169 161.912 23.6698L166.372 21.3385C165.333 22.6055 164.294 23.8725 163.356 25.1142C161.512 27.5413 159.819 30.0802 158.288 32.7164C155.658 37.1278 153.509 41.8088 151.877 46.679C149.191 54.9653 149.191 60.3629 150.154 60.5403C152.384 60.9964 157.401 40.7747 175.773 21.9213C177.273 20.2805 178.305 18.268 178.763 16.093C178.978 14.7101 178.794 13.2947 178.231 12.0132C177.655 10.7821 176.785 9.71168 175.697 8.89628C174.029 7.69993 172.144 6.83928 170.148 6.36223C168.501 5.9061 167.082 5.55134 165.586 5.17123C159.707 3.75216 154.361 2.63718 149.825 2.00367C140.753 0.609939 135 0.533914 134.823 1.44617C134.646 2.35843 139.891 4.20829 148.532 6.81836L163.585 11.3796C164.928 11.8104 166.448 12.2412 167.766 12.6974C165.232 13.5336 162.115 14.7499 158.06 16.5745C154.715 18.0442 150.686 19.7674 146.024 22.0733L138.421 25.7984L129.73 30.3597C117.363 36.9736 102.362 45.7414 87.3095 55.7002C72.3202 65.6527 57.8646 76.3866 44.0026 87.8573C32.9248 96.9652 22.3266 106.641 12.2509 116.847C4.64879 124.652 0.340908 129.771 0.771697 130.151C1.836 131.063 21.3229 112.691 48.3865 92.4946C61.8677 82.3584 77.1733 71.7661 92.3016 62.2634" fill="#2E2E2E"/>
</svg>
